<?xml version="1.0" encoding="utf-8"?>
<!-- Generator: Adobe Illustrator 16.0.0, SVG Export Plug-In . SVG Version: 6.00 Build 0)  -->
<!DOCTYPE svg PUBLIC "-//W3C//DTD SVG 1.1//EN" "http://www.w3.org/Graphics/SVG/1.1/DTD/svg11.dtd">
<svg version="1.1" id="Layer_1" xmlns="http://www.w3.org/2000/svg" xmlns:xlink="http://www.w3.org/1999/xlink" x="0px" y="0px"
	 width="841.89px" height="595.28px" viewBox="0 0 841.89 595.28" enable-background="new 0 0 841.89 595.28" xml:space="preserve">
<g>
	<path fill="none" d="M383.28,408.441c2.201-6.102-3.137-5.244-5.646-5.467c-10.078-0.891-20.21-1.16-30.974-1.691
		c2.105,4.4,3.534,8.252,5.704,11.627c1.476,2.295,4.407,5.846,5.97,5.51c6.447-1.391,3.661,2.426,3.371,3.859
		c3.036,0,6.034,0,9.398,0c2.113-0.822,4.854-2.629,7.721-2.859c6.797-0.545,7.819-1.666,5.387-7.76
		C383.79,410.609,382.973,409.295,383.28,408.441z"/>
	<path fill="none" d="M287.992,236.174c9.56-8.244,20.289-12.188,33.159-10.526c5.907,0.762,12.498,4.436,18.259-2.459
		c-4.384-7.253-12.116-9.385-19.228-12.354c-1.314-0.549-3.043-0.003-4.518-0.287c-4.806-0.926-7.928,2.608-11.823,4.141
		c-4.295,1.691-7.876,3.398-7.811,8.911c0.016,1.338-1.251,2.949-2.349,3.994c-2.888,2.75-6.007,5.259-9.035,7.864
		c0.407,0.465,0.813,0.931,1.22,1.396C286.584,236.636,287.474,236.621,287.992,236.174z"/>
	<path fill="none" d="M332.565,245.021c2.106,1.357,4.05,2.61,5.994,3.863c-5.521-10.825-15.593-12.323-25.564-11.687
		c-7.684,0.491-15.203,3.571-22.795,5.5c1.5-2.511,3-5.021,4.5-7.531c-0.379-0.304-0.758-0.607-1.137-0.911
		c-2.86,3.545-5.721,7.09-9.166,11.359c2.053,0.138,2.854,0.191,3.657,0.245c-0.471,0.692-0.841,1.489-1.431,2.059
		c-2.42,2.339-1.85,3.846,1.093,5.114c1.992,0.858,3.822,2.093,6.604,3.653c0.691-9.207,6.411-14.196,15.59-15.93
		c-0.712,7.667,1.143,12.346,4.963,13.041C324.33,255.515,330.194,252.667,332.565,245.021z"/>
	<path fill="none" d="M405.529,363.965c0.386,1.201,0.773,2.408,1.418,4.42c-1.75-1.193-2.776-1.893-3.358-2.289
		c-1.79,1.049-3.172,2.527-4.626,2.602c-8.409,0.43-16.834,0.652-25.256,0.691c-5.299,0.025-10.687,0.125-15.878-0.748
		c-5.244-0.879-11.803,0.283-14.393-6.623c-9.005-1.9-15.392,4.889-23.504,7.152c1.475,1.32,3.074,2.504,4.704,2.547
		c7.421,0.199,14.815,2.354,22.304,0.189c1.604-0.463,3.637,0.01,5.334,0.514c7.855,2.334,15.667,1.957,23.615,0.422
		c5.338-1.031,10.794-1.547,16.223-1.996c10.323-0.852,21.241,4.715,30.761-3.238C420.837,363.764,412.171,361.766,405.529,363.965z
		"/>
	<path fill="none" d="M336.499,320.006c-1.214,0.707-1.913,4.682-1.071,6.123c3.765,6.449,5.526-0.513,8.168-2.06
		C341.969,321.41,340.46,317.699,336.499,320.006z"/>
	<path fill="none" d="M541.936,266.915c-0.841,0.08-2.755-0.326-3.634,0.447c-3.745,3.291-3.231,8.612,2.007,16.362
		C540.885,277.763,541.344,273.025,541.936,266.915z"/>
	<path fill="none" d="M390.756,321.14c-5.696-4.075-12.618-3.338-18.395,2.239C378.571,326.222,378.571,326.222,390.756,321.14z"/>
	<path fill="none" d="M441.947,216.681c-0.843-0.37-2.092-1.291-2.07-1.919c0.158-4.524-3.547-6.253-6.411-6.759
		c-7.407-1.308-15.015-1.455-22.525-2.225c-4.001-0.41-7.161,0.618-9.232,4.346c16.833,10.138,36.338,9.2,54.751,13.124
		C451.709,220.815,446.801,218.811,441.947,216.681z"/>
	<path fill="none" d="M541.358,304.885c-0.549-2.539-0.824-4.131-1.243-5.686c-0.858-3.182-1.83-4.426-5.293-1.79
		c-4.436,3.374-6.156,7.566-5.74,13.81C532.683,308.102,535.063,302.686,541.358,304.885z"/>
	<path fill="none" d="M467.111,239.228c-3.166-1.325-6.16-3.056-9.293-4.466c-9.439-4.25-19.098-5.54-29.363-3.055
		c-8.355,2.022-14.533,7.573-21.451,11.948c-0.443,0.28-0.058,1.872-0.058,2.532c7.843-4.447,15.202-8.62,23.759-13.472
		c0,3.125,0.064,4.629-0.012,6.127c-0.3,5.919,3.098,9.957,9.029,9.884c4.914-0.061,9.818-0.857,14.727-1.327
		c-0.026-0.359-0.053-0.718-0.079-1.077c-3.129-0.713-6.257-1.427-9.386-2.14c0.085-0.604,0.17-1.207,0.255-1.81
		c3.464-1.526,6.928-3.052,11.306-4.98c0.707,0.287,2.631,1.068,4.706,1.909c-0.634,1.507-1.175,2.793-1.808,4.299
		c3.236,0.587,6.305,1.145,9.297,1.688C471.047,242.465,470.401,240.604,467.111,239.228z"/>
	<path fill="#FFFFFF" d="M578.901,262.837c-1.397-7.308-3.695-14.453-5.816-21.607c-0.49-1.654-1.425-3.436-2.688-4.559
		c-8.383-7.452-22.934-6.971-29.548,2.641c-0.808,1.173-3.777,2.415-4.362,1.937c-4.311-3.532-5.844,0.033-6.845,2.813
		c-1.329,3.693-2.335,7.69-2.466,11.591c-0.334,10.068-0.111,20.154-0.111,30.233c-1.71-3.218-2.557-6.604-2.842-10.037
		c-0.344-4.131,0.059-8.328-0.336-12.451c-0.985-10.298-1.535-20.564,0.271-30.828c0.388-2.207,0.362-4.541,1.088-6.62
		c1.163-3.329,2.091-7.16,4.384-9.582c4.017-4.244,4.392-4.933,0.383-7.065c1.41-5.647,2.955-11.065,3.973-16.581
		c0.199-1.08-1.541-2.65-2.658-3.705c-0.178-0.167-1.801,1.205-2.76,1.858c-1.139,0.774-2.281,1.541-3.941,2.661
		c-0.603-2.839-1.38-4.873-1.396-6.912c-0.041-4.798-2.424-6.201-6.943-7.101c-2.98-0.594-6.447-3.407-7.847-6.166
		c-1.991-3.925-1.756-8.928-3.443-13.074c-1.932-4.746-4.048-10.064-7.714-13.271c-3.521-3.079-5.057-5.707-5.473-10.223
		c-0.267-2.899-0.838-7.778-5.277-7.501c-3.17,0.198-8.092,1.093-5.209,7.192c-11.527-2.307-22.454-4.517-33.393-6.663
		c-2.057-0.403-4.191-0.906-6.241-0.743c-4.716,0.375-9.39,1.539-14.1,1.661c-15.4,0.397-30.937,0.987-45.551-5.042
		c-6.195-2.556-12.258,1.588-18.208-0.752c-4.151-1.632-8.284-3.311-12.424-4.969l0.126,0.119c0.018,0.017,0.03,0.029,0.03,0.029
		c-7.933,0.602-12.694-7.214-20.696-7.58c-3.238-0.147-5.376-1.043-6.789,1.625c-1.688-0.78-3.557-2.374-4.461-1.942
		c-5.4,2.573-11.33,4.797-15.604,8.741c-3.749,3.459-5.73,8.932-8.171,13.681c-2.31,4.494-1.778,9.88-7.001,13.631
		c-4.026,2.892-5.638,8.974-8.782,13.305c-5.192,7.153-4.374,15.84-6.596,23.737c-0.014,0.05,0.513,0.253,1.004,0.488
		c0.425-0.729,0.838-1.438,1.251-2.146c-5.548,19.224,0.843,38.624-0.498,56.196c-2.701,1.631-4.3,2.597-5.899,3.563
		c1.105,1.392,2.404,2.675,3.263,4.206c0.988,1.761,1.586,3.74,2.354,5.624c-1.852,0.104-3.703,0.209-6.567,0.372
		c0.218,3.04,1.461,7.095,0.552,10.591c-1.605,6.172-0.107,11.661,1.571,17.312c1.734,5.842,3.118,11.627,0.256,17.161
		c1.015,6.142,2.604,12.185,3.796,18.293c0.057-0.014,0.111-0.025,0.169-0.038c0.481,2.192,0.99,4.382,1.44,6.583
		c1.011,4.943,1.159,10.281,3.23,14.727c1.962,4.209,0.71,9.17,4.325,12.971c2.999,3.152,1.732,8.387,5.062,12.096
		c5.166,5.754,9.35,12.387,14.007,18.604c4.294,5.732,8.703,11.379,12.961,17.137c0.714,0.965,0.921,2.309,1.405,3.586
		c1.232-1.152,2.185-2.045,3.16-2.957c0.933,2.705,1.033,6.014,2.61,7.027c5.522,3.553,2.772,7.494,1.542,11.088
		c5.405,8.906,7.574,19.916,17.984,24.791c4.689-6.615,4.477,1.455,5.668,1.947c1.961-1.717,3.953-2.67,4.625-4.201
		c1.907-4.342,3.144-0.521,4.648,0.119c3.289,1.398,6.007,3.557,10.357,1.76c4.95-2.045,7.433-0.262,7.205,3.207
		c-0.068,1.043,0.49,2.127,0.762,3.189c1.358-0.398,2.875-0.57,3.974-1.34c0.323-0.227-0.438-2.195-0.9-3.281
		c-0.399-0.939-1.078-1.76-1.889-3.037h6.482c1.239,2.086,2.427,4.086,4.6,7.744c2.308-3.799,3.896-6.412,5.821-9.58
		c2.206-0.998,5.394-2.443,8.649-3.92c0.058-0.635,0.152-1.668,0.238-2.609c7.029-1.193,7.481,7.195,12.998,8.102
		c0.302-0.812,0.614-1.652,1.162-3.125c1.456,1.631,3.684,2.965,3.719,4.354c0.214,8.547,10.28,7.035,12.85,12.992
		c0.022,0.055,0.434-0.055,0.662-0.098c7.571-1.385,14.168-4.967,20.49-9.143c1.725-1.139,3.359-2.412,5.036-3.623
		c0.317,0.42,0.636,0.842,0.954,1.262c-6.28,5.053-12.561,10.104-17.541,14.109c-0.781,1.971-0.879,3.186-1.419,3.432
		c-6.559,3.006-11.077,8.113-15.614,13.545c-1.81,2.166-3.895,7.359-8.537,4.342c-1.207,1.844-2.739,5.363-3.532,5.203
		c-4.572-0.918-5.822,2.955-8.26,4.957c-3.434,2.818-7.02,4.178-11.517,2.986c-1.734-0.459-3.695,0.004-5.541-0.123
		c-2.267-0.154-4.635-0.127-6.764-0.799c-17.295-5.461-29.5-17.293-39.91-31.604c-5.487-7.543-11.804-14.482-18.177-22.217
		c1.84,14.844,3.524,28.568,5.251,42.289c0.554,4.398,1.813,8.797,1.72,13.172c-0.164,7.639-0.592,15.274-1.071,22.906
		c22.158,6.605,45.399,10.035,69.169,10.035c35.803,0,70.409-7.768,101.908-22.487c0.256-0.764,0.53-1.521,0.779-2.286
		c1.617-4.973,2.092-10.381,2.576-15.639c0.411-4.461-0.208-9.012,0.154-13.48c1.18-14.578,2.668-29.129,3.907-43.701
		c1.101-12.953,1.962-25.928,3.07-38.881c0.333-3.881,0.731-7.84,1.817-11.551c2.191-7.48,4.897-14.807,7.348-22.211
		c1.746-5.279,2.793-10.211,9.967-12.008c4.45-1.115,8.225-6.107,11.629-9.955c5.857-6.618,12.247-13.109,16.504-20.722
		c7.157-12.798,12.979-26.359,18.987-39.768C578.799,269.861,579.505,265.995,578.901,262.837z M410.94,205.778
		c7.511,0.77,15.118,0.917,22.525,2.225c2.864,0.506,6.569,2.235,6.411,6.759c-0.021,0.628,1.228,1.549,2.07,1.919
		c4.854,2.13,9.762,4.135,14.513,6.567c-18.413-3.924-37.919-2.986-54.751-13.124C403.779,206.396,406.939,205.368,410.94,205.778z
		 M390.756,321.14c-12.185,5.082-12.185,5.082-18.395,2.239C378.139,317.802,385.06,317.064,390.756,321.14z M343.596,324.069
		c-2.643,1.547-4.404,8.509-8.168,2.06c-0.841-1.441-0.143-5.416,1.071-6.123C340.46,317.699,341.969,321.41,343.596,324.069z
		 M293.682,227.593c1.097-1.045,2.364-2.655,2.349-3.994c-0.066-5.512,3.515-7.22,7.811-8.911c3.896-1.533,7.018-5.067,11.823-4.141
		c1.475,0.284,3.204-0.262,4.518,0.287c7.112,2.97,14.843,5.101,19.228,12.354c-5.761,6.895-12.353,3.222-18.259,2.459
		c-12.87-1.662-23.599,2.282-33.159,10.526c-0.518,0.447-1.408,0.462-2.125,0.678c-0.406-0.465-0.813-0.931-1.22-1.396
		C287.675,232.852,290.794,230.343,293.682,227.593z M314.873,253.796c-3.82-0.694-5.675-5.373-4.963-13.041
		c-9.18,1.734-14.899,6.723-15.59,15.93c-2.782-1.56-4.612-2.795-6.604-3.653c-2.943-1.268-3.513-2.774-1.093-5.114
		c0.59-0.57,0.96-1.366,1.431-2.059c-0.802-0.054-1.604-0.107-3.657-0.245c3.445-4.269,6.305-7.814,9.166-11.359
		c0.379,0.304,0.758,0.607,1.137,0.911c-1.5,2.51-3,5.021-4.5,7.531c7.592-1.929,15.111-5.01,22.795-5.5
		c9.971-0.636,20.043,0.861,25.564,11.687c-1.944-1.253-3.888-2.506-5.994-3.863C330.194,252.667,324.33,255.515,314.873,253.796z
		 M378.823,419.42c-2.867,0.23-5.607,2.037-7.721,2.859h-9.398c0.29-1.434,3.076-5.25-3.371-3.859
		c-1.563,0.336-4.494-3.215-5.97-5.51c-2.17-3.375-3.599-7.227-5.704-11.627c10.764,0.531,20.896,0.801,30.974,1.691
		c2.509,0.223,7.848-0.635,5.646,5.467c-0.308,0.854,0.51,2.168,0.93,3.219C386.643,417.754,385.62,418.875,378.823,419.42z
		 M392.113,370.846c-5.428,0.449-10.885,0.965-16.223,1.996c-7.949,1.535-15.76,1.912-23.615-0.422
		c-1.697-0.504-3.73-0.977-5.334-0.514c-7.489,2.164-14.883,0.01-22.304-0.189c-1.63-0.043-3.229-1.227-4.704-2.547
		c8.112-2.264,14.499-9.053,23.504-7.152c2.59,6.906,9.148,5.744,14.393,6.623c5.191,0.873,10.579,0.773,15.878,0.748
		c8.421-0.039,16.847-0.262,25.256-0.691c1.454-0.074,2.836-1.553,4.626-2.602c0.582,0.396,1.608,1.096,3.358,2.289
		c-0.646-2.012-1.033-3.219-1.418-4.42c6.642-2.199,15.308-0.201,17.345,3.643C413.354,375.561,402.436,369.994,392.113,370.846z
		 M468.74,245.287c-2.992-0.543-6.061-1.1-9.297-1.688c0.633-1.505,1.174-2.792,1.808-4.299c-2.075-0.841-3.999-1.622-4.706-1.909
		c-4.378,1.929-7.842,3.455-11.306,4.98c-0.085,0.604-0.17,1.207-0.255,1.81c3.129,0.713,6.257,1.426,9.386,2.14l0.079,1.077
		c-4.908,0.47-9.812,1.266-14.727,1.327c-5.932,0.073-9.329-3.965-9.029-9.884c0.076-1.498,0.012-3.002,0.012-6.127
		c-8.557,4.852-15.916,9.025-23.759,13.472c0-0.661-0.386-2.252,0.058-2.532c6.918-4.375,13.096-9.926,21.451-11.948
		c10.266-2.484,19.924-1.195,29.363,3.055c3.133,1.41,6.127,3.142,9.293,4.466C470.401,240.604,471.047,242.465,468.74,245.287z
		 M529.082,311.219c-0.416-6.243,1.305-10.436,5.74-13.81c3.463-2.636,4.435-1.392,5.293,1.79c0.419,1.555,0.694,3.146,1.243,5.686
		C535.063,302.686,532.683,308.102,529.082,311.219z M540.309,283.724c-5.238-7.75-5.752-13.071-2.007-16.362
		c0.879-0.773,2.793-0.368,3.634-0.447C541.344,273.025,540.885,277.763,540.309,283.724z"/>
	<path fill="#FFFFFF" d="M351.396,119.963c5.441,1.124,10.893,2.255,16.344,3.386c0.3-0.667,0.601-1.334,0.902-2.001
		c-1.188-0.866-2.321-1.826-3.579-2.574c-1.649-0.981-3.618-1.533-5.056-2.738c-2.534-2.123-4.608-4.82-7.248-6.773
		c-0.639-0.473-3.592,0.669-4.002,1.673c-1.464,3.578-1.059,7.022,2.806,9.183l-0.03-0.029
		C351.485,120.046,351.402,119.969,351.396,119.963z"/>
	<path fill="#FFFFFF" d="M351.562,120.119c0,0-0.013-0.012-0.03-0.029L351.562,120.119z"/>
	<path fill="#FFFFFF" d="M329.642,515.508c-37.828-11.277-72.491-31.834-101.186-60.529
		c-45.503-45.504-70.563-106.004-70.563-170.355c0-64.352,25.06-124.852,70.563-170.355s106.003-70.563,170.355-70.563
		s124.852,25.06,170.355,70.563c45.503,45.503,70.562,106.003,70.562,170.355c0,64.351-25.06,124.851-70.562,170.355
		c-20.188,20.188-43.33,36.34-68.447,48.077c-2.358,7.038-4.988,13.995-7.752,20.894c32.444-12.754,62.219-32.166,87.611-57.559
		c48.551-48.552,75.289-113.104,75.289-181.767s-26.738-133.215-75.289-181.767c-48.553-48.552-113.105-75.29-181.768-75.29
		c-68.663,0-133.215,26.738-181.767,75.29s-75.29,113.104-75.29,181.767s26.738,133.215,75.29,181.767
		c31.502,31.502,69.744,53.808,111.47,65.598c0.194-2.324,0.373-4.652,0.522-6.979C329.238,521.842,329.443,518.676,329.642,515.508
		z"/>
	<path fill="#FFFFFF" d="M492.967,523.949c2.764-6.898,5.394-13.855,7.752-20.894c-31.499,14.72-66.105,22.487-101.908,22.487
		c-23.77,0-47.011-3.43-69.169-10.035c-0.198,3.168-0.403,6.334-0.606,9.502c-0.149,2.326-0.328,4.654-0.522,6.979
		c22.583,6.383,46.185,9.693,70.297,9.693C431.563,541.682,463.375,535.584,492.967,523.949z"/>
</g>
</svg>
